<svg width="388" height="365" viewBox="0 0 388 365" fill="none" xmlns="http://www.w3.org/2000/svg">
<g clip-path="url(#clip0_398_1164)">
<path d="M148.833 109.335C148.833 109.335 120.057 34.1069 92.2532 10.0569C64.4492 -13.9943 0 12.647 0 12.647C0 12.647 6.29102 70.4576 52.2099 111.98C98.1264 153.507 148.833 109.335 148.833 109.335Z" fill="url(#paint0_linear_398_1164)"/>
<path d="M246.572 127.404C246.572 186.722 202.612 234.809 148.385 234.809C94.1592 234.809 50.1994 186.722 50.1994 127.404C50.1994 68.0832 94.1592 19.9958 148.385 19.9958C202.612 19.9958 246.572 68.0832 246.572 127.404Z" fill="url(#paint1_linear_398_1164)"/>
<path d="M272.812 89.1784C303.721 124.289 300.038 178.37 264.589 209.971C229.138 241.573 175.345 238.728 144.436 203.617C113.529 168.508 117.211 114.428 152.662 82.8259C188.111 51.2249 241.906 54.0696 272.812 89.1784Z" fill="#F9E0B3"/>
<path d="M212.272 223.91C227.237 222.514 241.982 216.699 254.438 206.373L210.052 155.952L212.272 223.91Z" fill="#FF9905"/>
<path d="M258.139 203.111C274.214 188.019 282.56 167.63 282.834 147.181L210.478 148.969L258.139 203.111Z" fill="#FFB514"/>
<path d="M204.497 149.641L148.571 198.707C148.599 198.739 148.626 198.773 148.654 198.805C164.028 216.269 185.701 224.841 207.393 224.206L204.976 150.185L204.497 149.641Z" fill="#FFB514"/>
<path d="M210.862 144.053L282.747 142.279C281.936 126.017 275.979 109.982 264.713 96.8105L210.862 144.053Z" fill="#FF9905"/>
<path d="M129.848 150.964C130.314 166.522 135.478 181.953 145.485 194.951L197.53 149.291L129.848 150.964Z" fill="#FF9905"/>
<path d="M153.948 92.2202C138.651 106.872 130.517 126.372 129.86 146.056L199.82 144.328L153.948 92.2202Z" fill="#FFB514"/>
<path d="M202.382 70.7166C186.492 71.7799 170.746 77.8037 157.612 88.9156L204.725 142.434L202.382 70.7166Z" fill="#FF9905"/>
<path d="M261.443 93.2176C246.77 78.1244 227.106 70.484 207.265 70.5473L209.495 138.794L261.443 93.2176Z" fill="#FFB514"/>
<path d="M230.591 152.611C231.8 153.092 235.954 156.787 234.715 159.358C233.888 161.072 227.709 161.169 226.665 160.753C225.622 160.338 221.507 157.17 219.033 153.122C223.575 151.863 229.381 152.13 230.591 152.611Z" fill="#FFE5BE" fill-opacity="0.6"/>
<path d="M181.179 140.549C179.982 140.043 175.912 136.258 177.201 133.707C178.061 132.007 184.229 132.034 185.262 132.471C186.295 132.907 190.336 136.164 192.722 140.269C188.165 141.438 182.377 141.055 181.179 140.549Z" fill="#FFE5BE" fill-opacity="0.6"/>
<path d="M200.479 168.783C199.79 170.002 195.361 174.244 192.978 173.079C191.391 172.303 192.341 166.147 192.937 165.095C193.533 164.043 197.423 159.855 201.923 157.278C202.422 161.769 201.169 167.564 200.479 168.783Z" fill="#FFE5BE" fill-opacity="0.6"/>
<path d="M212.956 119.332C213.477 118.046 217.33 113.289 219.884 114.098C221.588 114.635 221.495 120.779 221.045 121.89C220.594 122.999 217.274 127.627 213.116 130.769C211.986 126.451 212.433 120.618 212.956 119.332Z" fill="#FFE5BE" fill-opacity="0.6"/>
<path d="M318.219 198.781C318.219 198.781 340.685 194.161 355.674 183.843C366.301 173.58 367.436 148.962 367.436 148.962C367.436 148.962 333.859 148.61 328.451 160.241C319.489 176.488 318.219 198.781 318.219 198.781Z" fill="url(#paint2_linear_398_1164)"/>
<path d="M297.536 207.85C318.976 177.857 297.536 38.4128 225.375 52.6203C285.509 23.1529 344.907 106.219 306.949 205.746C360.286 205.746 332.049 202.062 388 207.85C339.892 204.496 276.097 237.844 297.536 207.85Z" fill="url(#paint3_linear_398_1164)"/>
<path d="M51.4086 272.639C51.0383 271.456 50.559 270.479 49.9706 269.712C49.3825 268.923 48.7178 268.309 47.9771 267.87C47.2363 267.41 46.4301 267.092 45.5586 266.917C44.6871 266.741 43.7829 266.654 42.8461 266.654C40.9069 266.654 39.0331 267.004 37.2248 267.706C35.4381 268.408 33.8476 269.515 32.4531 271.027C31.0806 272.519 29.9803 274.437 29.1523 276.783C28.3243 279.129 27.9104 281.936 27.9104 285.202C27.9104 287.746 28.1827 290.124 28.7275 292.339C29.2721 294.553 30.1545 296.483 31.3746 298.127C32.5948 299.772 34.1853 301.076 36.1462 302.041C38.1289 302.984 40.5582 303.455 43.4342 303.455C45.2209 303.455 46.7352 303.367 47.9771 303.192C49.2407 302.994 50.3628 302.797 51.3434 302.6H51.8008V283.656H58.0105V306.579C56.9211 306.93 55.799 307.27 54.6442 307.599C53.5113 307.906 52.302 308.18 51.0164 308.421C49.731 308.663 48.3693 308.849 46.9313 308.98C45.515 309.134 43.9899 309.21 42.3558 309.21C38.7608 309.21 35.6342 308.618 32.976 307.434C30.3397 306.228 28.1501 304.562 26.407 302.435C24.6858 300.309 23.4003 297.787 22.5505 294.872C21.7225 291.956 21.3086 288.776 21.3086 285.334C21.3086 282.506 21.5809 279.94 22.1256 277.638C22.6921 275.336 23.4656 273.286 24.4461 271.488C25.4265 269.669 26.5922 268.101 27.9431 266.785C29.2939 265.448 30.7646 264.352 32.3551 263.496C33.9456 262.62 35.6124 261.972 37.3555 261.556C39.1202 261.139 40.9069 260.932 42.7153 260.932C44.1533 260.932 45.6457 261.106 47.1927 261.458C48.7397 261.786 50.1995 262.367 51.5721 263.201C52.9665 264.012 54.2194 265.108 55.3305 266.489C56.4418 267.848 57.2914 269.548 57.8798 271.586L51.4086 272.639ZM64.0449 308.355V261.918H78.1961C80.2006 261.918 82.1616 262.115 84.0789 262.51C85.9962 262.904 87.6956 263.573 89.1772 264.516C90.6806 265.459 91.8899 266.708 92.805 268.265C93.7201 269.821 94.1776 271.751 94.1776 274.053C94.1776 275.544 93.9816 276.892 93.5894 278.099C93.1972 279.282 92.6307 280.357 91.8899 281.321C91.1709 282.264 90.2884 283.087 89.2426 283.788C88.1968 284.49 87.0202 285.093 85.713 285.597C87.456 286.014 88.8287 286.55 89.8309 287.208C90.855 287.844 91.6502 288.633 92.2167 289.576C92.805 290.497 93.2189 291.571 93.4586 292.8C93.7201 294.006 93.9597 295.386 94.1776 296.943C94.3955 298.478 94.6569 300.199 94.962 302.106C95.267 303.992 95.7681 306.075 96.4654 308.355H89.6022C89.1446 305.965 88.7851 303.817 88.5236 301.909C88.2839 299.98 88.0334 298.281 87.772 296.811C87.5105 295.321 87.1946 294.049 86.8241 292.996C86.4756 291.922 85.9635 291.045 85.2882 290.365C84.6127 289.686 83.7412 289.193 82.6736 288.886C81.6059 288.557 80.2333 288.392 78.5557 288.392H70.4505V308.355H64.0449ZM70.4178 283.525H78C79.3291 283.525 80.571 283.371 81.7258 283.065C82.8806 282.758 83.8828 282.264 84.7325 281.584C85.604 280.905 86.2795 280.017 86.7588 278.92C87.2599 277.803 87.5105 276.443 87.5105 274.842C87.5105 273.176 87.1946 271.861 86.5627 270.896C85.9308 269.932 85.1138 269.208 84.1116 268.726C83.1093 268.222 81.9872 267.914 80.7453 267.805C79.5251 267.673 78.3268 267.607 77.1503 267.607H70.4178V283.525ZM128.318 308.355H101.29V261.918H128.024V267.673H107.697V281.454H126.88V287.208H107.697V302.468H128.318V308.355ZM160.826 308.355H133.797V261.918H160.531V267.673H140.203V281.454H159.387V287.208H140.203V302.468H160.826V308.355ZM166.337 308.355V261.918H174.376L195.914 298.325L196.633 298.16C196.611 297.459 196.589 296.658 196.568 295.759C196.568 294.838 196.557 293.895 196.535 292.931C196.513 291.944 196.491 290.968 196.469 290.003C196.469 289.039 196.459 288.151 196.437 287.34C196.437 286.507 196.437 285.794 196.437 285.202C196.437 284.611 196.437 284.194 196.437 283.952V261.918H202.45V308.355H194.705L172.743 271.422L172.057 271.586C172.078 272.31 172.089 273.132 172.089 274.053C172.111 274.974 172.132 275.939 172.154 276.947C172.176 277.934 172.187 278.932 172.187 279.94C172.208 280.927 172.22 281.837 172.22 282.67C172.242 283.503 172.252 284.237 172.252 284.874C172.252 285.487 172.252 285.915 172.252 286.156V308.355H166.337Z" fill="#4EBD5C"/>
<path d="M76.2878 349.399H72.2639V336.244H59.1706V349.399H55.1467V320.334H59.1706V332.585H72.2639V320.334H76.2878V349.399ZM99.9675 349.934C98.3879 349.934 96.9717 349.748 95.7189 349.378C94.4797 348.995 93.3835 348.468 92.4303 347.796C91.477 347.125 90.66 346.323 89.9791 345.39C89.3119 344.459 88.7604 343.438 88.3246 342.328C87.9024 341.219 87.5893 340.04 87.385 338.793C87.1944 337.546 87.099 336.265 87.099 334.949C87.099 333.605 87.2012 332.297 87.4054 331.023C87.6233 329.748 87.9501 328.55 88.3859 327.426C88.8353 326.302 89.4003 325.275 90.0813 324.342C90.7757 323.397 91.5996 322.589 92.5529 321.917C93.506 321.232 94.5955 320.704 95.8211 320.334C97.0603 319.95 98.4424 319.759 99.9675 319.759C101.493 319.759 102.868 319.95 104.094 320.334C105.333 320.704 106.429 321.232 107.382 321.917C108.336 322.589 109.152 323.397 109.833 324.342C110.528 325.275 111.094 326.302 111.529 327.426C111.965 328.55 112.285 329.748 112.489 331.023C112.706 332.297 112.816 333.605 112.816 334.949C112.816 336.265 112.713 337.546 112.51 338.793C112.318 340.04 112.012 341.219 111.59 342.328C111.168 343.438 110.617 344.459 109.936 345.39C109.269 346.323 108.458 347.125 107.505 347.796C106.552 348.468 105.448 348.995 104.196 349.378C102.957 349.748 101.547 349.934 99.9675 349.934ZM99.9675 346.337C101.656 346.337 103.052 346.028 104.155 345.411C105.271 344.795 106.156 343.959 106.81 342.904C107.463 341.849 107.92 340.629 108.179 339.245C108.451 337.86 108.588 336.394 108.588 334.846C108.588 333.242 108.444 331.743 108.159 330.345C107.886 328.946 107.416 327.728 106.749 326.686C106.082 325.644 105.197 324.829 104.094 324.24C102.991 323.637 101.615 323.335 99.9675 323.335C98.3198 323.335 96.9445 323.637 95.8414 324.24C94.7384 324.829 93.8532 325.644 93.186 326.686C92.5188 327.728 92.0422 328.946 91.7562 330.345C91.4702 331.743 91.3273 333.242 91.3273 334.846C91.3273 336.394 91.4566 337.86 91.7154 339.245C91.9877 340.629 92.4507 341.849 93.1043 342.904C93.758 343.959 94.6362 344.795 95.7393 345.411C96.8559 346.028 98.2654 346.337 99.9675 346.337ZM123.627 349.399V320.376H132.471C133.724 320.376 134.95 320.499 136.148 320.745C137.347 320.992 138.408 321.41 139.335 321.999C140.274 322.589 141.03 323.37 141.602 324.342C142.174 325.316 142.46 326.522 142.46 327.96C142.46 328.892 142.337 329.735 142.092 330.488C141.847 331.228 141.492 331.899 141.03 332.503C140.58 333.092 140.029 333.605 139.376 334.044C138.722 334.483 137.987 334.86 137.169 335.175C138.259 335.436 139.116 335.771 139.743 336.182C140.383 336.58 140.881 337.073 141.234 337.663C141.602 338.238 141.861 338.91 142.01 339.677C142.174 340.43 142.324 341.293 142.46 342.267C142.596 343.226 142.759 344.301 142.95 345.494C143.141 346.672 143.453 347.974 143.889 349.399H139.601C139.314 347.906 139.089 346.563 138.926 345.37C138.776 344.164 138.62 343.102 138.456 342.185C138.293 341.252 138.096 340.458 137.863 339.8C137.646 339.129 137.326 338.58 136.903 338.155C136.482 337.731 135.937 337.423 135.27 337.231C134.603 337.025 133.745 336.923 132.696 336.923H127.63V349.399H123.627ZM127.61 333.88H132.349C133.179 333.88 133.955 333.784 134.678 333.592C135.399 333.4 136.026 333.092 136.556 332.668C137.101 332.243 137.524 331.688 137.823 331.003C138.136 330.303 138.293 329.454 138.293 328.454C138.293 327.412 138.096 326.59 137.7 325.987C137.306 325.384 136.795 324.931 136.168 324.63C135.542 324.315 134.841 324.123 134.065 324.055C133.302 323.973 132.553 323.932 131.818 323.932H127.61V333.88ZM163.464 349.399H159.481V323.973H150.534V320.376H172.41V323.973H163.464V349.399ZM181.608 349.399V320.376H185.611V349.399H181.608ZM202.101 349.399H198.016V320.376H214.254V323.973H202.101V333.181H213.519V336.778H202.101V349.399ZM224.596 349.399V320.376H233.44C234.693 320.376 235.919 320.499 237.117 320.745C238.316 320.992 239.378 321.41 240.304 321.999C241.243 322.589 241.999 323.37 242.571 324.342C243.143 325.316 243.429 326.522 243.429 327.96C243.429 328.892 243.306 329.735 243.062 330.488C242.816 331.228 242.462 331.899 241.999 332.503C241.549 333.092 240.998 333.605 240.345 334.044C239.691 334.483 238.956 334.86 238.139 335.175C239.228 335.436 240.086 335.771 240.713 336.182C241.353 336.58 241.85 337.073 242.203 337.663C242.571 338.238 242.829 338.91 242.98 339.677C243.143 340.43 243.293 341.293 243.429 342.267C243.565 343.226 243.729 344.301 243.919 345.494C244.11 346.672 244.423 347.974 244.858 349.399H240.569C240.283 347.906 240.059 346.563 239.895 345.37C239.745 344.164 239.588 343.102 239.425 342.185C239.262 341.252 239.064 340.458 238.833 339.8C238.615 339.129 238.295 338.58 237.873 338.155C237.451 337.731 236.906 337.423 236.239 337.231C235.571 337.025 234.714 336.923 233.665 336.923H228.6V349.399H224.596ZM228.579 333.88H233.318C234.149 333.88 234.925 333.784 235.647 333.592C236.368 333.4 236.995 333.092 237.526 332.668C238.071 332.243 238.492 331.688 238.793 331.003C239.105 330.303 239.262 329.454 239.262 328.454C239.262 327.412 239.064 326.59 238.669 325.987C238.275 325.384 237.765 324.931 237.138 324.63C236.512 324.315 235.81 324.123 235.034 324.055C234.271 323.973 233.523 323.932 232.786 323.932H228.579V333.88ZM277.383 320.376V338.629C277.383 340.327 277.11 341.876 276.566 343.274C276.035 344.658 275.279 345.843 274.298 346.83C273.318 347.816 272.141 348.583 270.765 349.132C269.403 349.666 267.899 349.934 266.251 349.934C264.603 349.934 263.091 349.694 261.716 349.214C260.354 348.72 259.177 348.001 258.182 347.055C257.202 346.097 256.44 344.904 255.895 343.479C255.35 342.041 255.078 340.376 255.078 338.484V320.376H259.082V338.731C259.082 340.253 259.293 341.506 259.714 342.493C260.15 343.479 260.709 344.254 261.39 344.816C262.084 345.377 262.86 345.767 263.718 345.987C264.59 346.206 265.461 346.315 266.332 346.315C267.368 346.315 268.26 346.2 269.008 345.966C269.757 345.72 270.397 345.398 270.929 345C271.46 344.603 271.889 344.144 272.215 343.623C272.542 343.089 272.794 342.54 272.971 341.978C273.161 341.403 273.284 340.827 273.339 340.252C273.407 339.677 273.441 339.135 273.441 338.629V320.376H277.383ZM299.224 349.399H295.241V323.973H286.295V320.376H308.171V323.973H299.224V349.399ZM317.368 349.399V320.376H321.372V349.399H317.368Z" fill="#D8D13A"/>
<path d="M221.943 308.355H215.407V261.918H241.388V267.673H221.943V282.407H240.213V288.162H221.943V308.355ZM263.895 309.21C261.368 309.21 259.101 308.914 257.098 308.323C255.115 307.708 253.361 306.864 251.835 305.789C250.31 304.716 249.003 303.433 247.913 301.942C246.845 300.452 245.964 298.818 245.266 297.042C244.591 295.265 244.09 293.381 243.763 291.385C243.458 289.39 243.305 287.34 243.305 285.235C243.305 283.087 243.468 280.993 243.796 278.953C244.144 276.915 244.667 274.996 245.365 273.198C246.083 271.4 246.988 269.756 248.077 268.265C249.188 266.753 250.506 265.459 252.032 264.385C253.556 263.288 255.3 262.444 257.261 261.851C259.244 261.238 261.454 260.932 263.895 260.932C266.335 260.932 268.536 261.238 270.497 261.851C272.48 262.444 274.233 263.288 275.758 264.385C277.284 265.459 278.591 266.753 279.68 268.265C280.792 269.756 281.695 271.4 282.393 273.198C283.09 274.996 283.602 276.915 283.929 278.953C284.277 280.993 284.452 283.087 284.452 285.235C284.452 287.34 284.289 289.39 283.962 291.385C283.656 293.381 283.167 295.265 282.491 297.042C281.816 298.818 280.933 300.452 279.844 301.942C278.776 303.433 277.48 304.716 275.955 305.789C274.429 306.864 272.665 307.708 270.66 308.323C268.677 308.914 266.422 309.21 263.895 309.21ZM263.895 303.455C266.597 303.455 268.83 302.962 270.595 301.976C272.381 300.988 273.797 299.651 274.843 297.963C275.889 296.275 276.619 294.324 277.033 292.108C277.469 289.894 277.687 287.548 277.687 285.071C277.687 282.506 277.458 280.104 277.001 277.868C276.565 275.632 275.813 273.681 274.746 272.015C273.678 270.348 272.262 269.044 270.497 268.101C268.732 267.136 266.531 266.654 263.895 266.654C261.259 266.654 259.059 267.136 257.293 268.101C255.529 269.044 254.112 270.348 253.045 272.015C251.977 273.681 251.215 275.632 250.757 277.868C250.3 280.104 250.071 282.506 250.071 285.071C250.071 287.548 250.278 289.894 250.692 292.108C251.127 294.324 251.869 296.275 252.914 297.963C253.96 299.651 255.365 300.988 257.13 301.976C258.916 302.962 261.171 303.455 263.895 303.455ZM307.71 309.21C305.182 309.21 302.916 308.914 300.912 308.323C298.929 307.708 297.176 306.864 295.65 305.789C294.125 304.716 292.818 303.433 291.728 301.942C290.66 300.452 289.778 298.818 289.081 297.042C288.405 295.265 287.904 293.381 287.578 291.385C287.273 289.39 287.12 287.34 287.12 285.235C287.12 283.087 287.283 280.993 287.61 278.953C287.959 276.915 288.482 274.996 289.179 273.198C289.898 271.4 290.802 269.756 291.892 268.265C293.003 266.753 294.32 265.459 295.846 264.385C297.371 263.288 299.114 262.444 301.075 261.851C303.058 261.238 305.269 260.932 307.71 260.932C310.15 260.932 312.35 261.238 314.311 261.851C316.294 262.444 318.048 263.288 319.573 264.385C321.099 265.459 322.406 266.753 323.495 268.265C324.606 269.756 325.51 271.4 326.207 273.198C326.905 274.996 327.416 276.915 327.744 278.953C328.092 280.993 328.267 283.087 328.267 285.235C328.267 287.34 328.104 289.39 327.776 291.385C327.471 293.381 326.981 295.265 326.306 297.042C325.63 298.818 324.748 300.452 323.659 301.942C322.591 303.433 321.294 304.716 319.769 305.789C318.244 306.864 316.479 307.708 314.474 308.323C312.492 308.914 310.237 309.21 307.71 309.21ZM307.71 303.455C310.411 303.455 312.644 302.962 314.41 301.976C316.196 300.988 317.612 299.651 318.658 297.963C319.704 296.275 320.434 294.324 320.848 292.108C321.284 289.894 321.501 287.548 321.501 285.071C321.501 282.506 321.272 280.104 320.815 277.868C320.379 275.632 319.627 273.681 318.56 272.015C317.493 270.348 316.077 269.044 314.311 268.101C312.547 267.136 310.346 266.654 307.71 266.654C305.074 266.654 302.873 267.136 301.108 268.101C299.344 269.044 297.926 270.348 296.86 272.015C295.792 273.681 295.03 275.632 294.571 277.868C294.114 280.104 293.885 282.506 293.885 285.071C293.885 287.548 294.092 289.894 294.507 292.108C294.942 294.324 295.683 296.275 296.729 297.963C297.775 299.651 299.179 300.988 300.945 301.976C302.731 302.962 304.986 303.455 307.71 303.455ZM369.401 285.137C369.401 287.372 369.205 289.434 368.813 291.319C368.443 293.183 367.941 294.882 367.309 296.417C366.678 297.952 365.948 299.322 365.119 300.527C364.314 301.712 363.453 302.731 362.538 303.587C361.492 304.508 360.338 305.275 359.073 305.888C357.832 306.503 356.503 306.996 355.087 307.368C353.692 307.72 352.211 307.971 350.642 308.125C349.095 308.278 347.493 308.355 345.838 308.355H333.483V261.918H346.622C348.191 261.918 349.749 262.005 351.296 262.181C352.842 262.334 354.345 262.63 355.805 263.069C357.287 263.507 358.693 264.11 360.021 264.878C361.372 265.645 362.615 266.643 363.747 267.87C365.621 270.063 367.026 272.65 367.963 275.632C368.922 278.592 369.401 281.76 369.401 285.137ZM362.571 285.366C362.571 284.49 362.516 283.459 362.407 282.276C362.299 281.092 362.092 279.875 361.786 278.625C361.481 277.374 361.046 276.136 360.479 274.909C359.934 273.681 359.226 272.573 358.355 271.586C356.982 270.074 355.348 269.032 353.452 268.463C351.579 267.87 349.335 267.574 346.72 267.574H339.856V302.731H345.379C346.578 302.731 347.744 302.666 348.877 302.534C350.031 302.403 351.121 302.205 352.145 301.942C353.169 301.657 354.128 301.296 355.021 300.857C355.936 300.418 356.742 299.892 357.44 299.278C358.464 298.335 359.302 297.272 359.956 296.088C360.632 294.904 361.155 293.687 361.525 292.438C361.917 291.166 362.189 289.928 362.342 288.722C362.494 287.493 362.571 286.376 362.571 285.366Z" fill="#9CCC6B"/>
</g>
<defs>
<linearGradient id="paint0_linear_398_1164" x1="-2.72684e-06" y1="3.52073e-05" x2="87.6129" y2="110.142" gradientUnits="userSpaceOnUse">
<stop stop-color="#2A6C2C"/>
<stop offset="1" stop-color="#1EC824" stop-opacity="0.6"/>
<stop offset="1" stop-color="#0DDB14" stop-opacity="0.6"/>
</linearGradient>
<linearGradient id="paint1_linear_398_1164" x1="148.386" y1="19.9958" x2="148.386" y2="234.809" gradientUnits="userSpaceOnUse">
<stop stop-color="#FF7B06"/>
<stop offset="1" stop-color="#FFB514"/>
</linearGradient>
<linearGradient id="paint2_linear_398_1164" x1="342.827" y1="148.961" x2="342.827" y2="198.781" gradientUnits="userSpaceOnUse">
<stop stop-color="#0DDB14" stop-opacity="0.6"/>
<stop offset="1" stop-color="#226624" stop-opacity="0.74"/>
</linearGradient>
<linearGradient id="paint3_linear_398_1164" x1="388" y1="220.597" x2="196.347" y2="-28.9436" gradientUnits="userSpaceOnUse">
<stop stop-color="#388E3B"/>
<stop offset="1" stop-color="#0DDB14" stop-opacity="0.6"/>
</linearGradient>
<clipPath id="clip0_398_1164">
<rect width="388" height="364.532" fill="white"/>
</clipPath>
</defs>
</svg>
